<?xml version="1.0"?>
<svg xmlns="http://www.w3.org/2000/svg" xmlns:xlink="http://www.w3.org/1999/xlink" viewBox="0 0 512 512" width="512" height="512"><defs><linearGradient id="linear-gradient" x1="73.259" y1="540.573" x2="447.644" y2="166.188" gradientUnits="userSpaceOnUse"><stop offset="0" stop-color="#41dfd0"/><stop offset="1" stop-color="#ee83ef"/></linearGradient></defs><g id="gradient"><path d="M272,176a8,8,0,0,1,8-8h24a8,8,0,0,1,0,16H280A8,8,0,0,1,272,176Zm18,16a10,10,0,1,0,10,10A10,10,0,0,0,290,192Zm-50-16a8,8,0,0,0-8-8H208a8,8,0,0,0,0,16h24A8,8,0,0,0,240,176Zm-18,16a10,10,0,1,0,10,10A10,10,0,0,0,222,192Zm50,72H240a8,8,0,0,0,0,16h32a8,8,0,0,0,0-16Zm-64,75.056V319.8a78.84,78.84,0,0,1-25.255-33.4A205.454,205.454,0,0,1,170.212,240h-5.268a28.785,28.785,0,0,1-25.888-16A29.092,29.092,0,0,1,136,211.056V196.944a28.833,28.833,0,0,1,7.966-19.91l-5.423-37.962a51.416,51.416,0,0,1,9.83-38.37A52.031,52.031,0,0,1,187.08,80.071,83.761,83.761,0,0,1,240.9,40.146c5.042-1.171,10.327-2.4,15.63-3.637a92.217,92.217,0,0,1,94.484,34.313A100,100,0,0,1,372.1,160.279l-4.186,16.634A28.834,28.834,0,0,1,376,196.944v14.112A29.092,29.092,0,0,1,372.944,224a28.785,28.785,0,0,1-25.888,16h-5.268a205.454,205.454,0,0,1-12.533,46.4A78.84,78.84,0,0,1,304,319.8v19.256l143.46,71.73a68.013,68.013,0,0,1,36.906,51.2l3.554,24.88A8,8,0,0,1,480,496H32a8,8,0,0,1-7.92-9.131l3.554-24.879a68.013,68.013,0,0,1,36.906-51.2ZM164.9,480l-20.49-61.47a8,8,0,0,1,1.611-7.845l36.4-40.952L71.7,425.1a52.014,52.014,0,0,0-28.222,39.157L41.224,480H72V456a8,8,0,0,1,16,0v24ZM200,374.042l-38.948,43.816L181.766,480H200V374.042Zm129.578-4.309,36.4,40.952a8,8,0,0,1,1.611,7.845L347.1,480H424V456a8,8,0,0,1,16,0v24h30.776l-2.25-15.748A52.014,52.014,0,0,0,440.3,425.1ZM312,480h18.234l20.714-62.142L312,374.042V480Zm-80.145-63.136-5.671-17.012L216,404.944V480h8.84Zm-11.894-59.449L216,369.3v17.758l25.239-12.62ZM256,365.755l32-25.6v-10.87a79.6,79.6,0,0,1-64,0v10.87ZM271.062,480l-6.222-56H247.16l-6.222,56Zm.3-87.376L256,384.944l-15.359,7.68L245.766,408h20.468ZM296,404.944l-10.184-5.092-5.671,17.012L287.16,480H296Zm0-35.646-3.961-11.883-21.278,17.021L296,387.056Zm64-172.354A12.959,12.959,0,0,0,347.056,184H344v25.837q0,7.113-.487,14.163h3.543a12.876,12.876,0,0,0,11.578-7.155A13.024,13.024,0,0,0,360,211.056ZM168.487,224q-.48-7.049-.487-14.163V184h-3.056A12.959,12.959,0,0,0,152,196.944v14.112a13.024,13.024,0,0,0,1.366,5.789A12.876,12.876,0,0,0,164.944,224Zm24.62-116.792a8,8,0,0,1,12.6-1.543A128.849,128.849,0,0,0,297.087,144H336a8,8,0,0,1,8,8v16h3.056a28.888,28.888,0,0,1,6.424.728l3.108-12.353A83.993,83.993,0,0,0,338.726,81.07c-.12-.139-.235-.281-.345-.428a76.215,76.215,0,0,0-78.218-28.55c-5.308,1.237-10.6,2.467-15.642,3.638a67.841,67.841,0,0,0-45.466,35.848A8,8,0,0,1,191.9,96h-2.123a35.925,35.925,0,0,0-28.6,14.3,35.511,35.511,0,0,0-6.79,26.507l4.546,31.824a28.944,28.944,0,0,1,6.015-.633H168V152a8.015,8.015,0,0,1,1.107-4.062ZM256,320a62.6,62.6,0,0,0,58.4-39.538A189.337,189.337,0,0,0,328,209.837V160H297.087a145.057,145.057,0,0,1-95.29-36.022l-17.8,30.2v55.655a189.337,189.337,0,0,0,13.6,70.625A62.6,62.6,0,0,0,256,320Zm-16-80a8,8,0,0,0,8,8h16a8,8,0,0,0,0-16h-8V216a8,8,0,0,0-16,0Z" style="fill:url(#linear-gradient)"/></g></svg>
