<?xml version="1.0" encoding="utf-8"?>
<!-- Generator: Adobe Illustrator 15.0.2, SVG Export Plug-In . SVG Version: 6.00 Build 0)  -->
<!DOCTYPE svg PUBLIC "-//W3C//DTD SVG 1.1//EN" "http://www.w3.org/Graphics/SVG/1.1/DTD/svg11.dtd">
<svg version="1.1" id="Layer_1" xmlns="http://www.w3.org/2000/svg" xmlns:xlink="http://www.w3.org/1999/xlink" x="0px" y="0px"
	 width="1000px" height="1000px" viewBox="0 0 1000 1000" enable-background="new 0 0 1000 1000" xml:space="preserve">
<path d="M356.816,627.188c-8.929,0-17.199-1.089-24.582-3.234c-1.34-0.39-2.111-1.792-1.721-3.135
	c0.388-1.338,1.772-2.11,3.133-1.721c8.559,2.488,18.578,3.438,29.2,2.871c1.358-0.077,2.585,0.992,2.661,2.387
	c0.074,1.395-0.995,2.585-2.39,2.659C360.993,627.128,358.873,627.188,356.816,627.188z M392.911,622.319
	c-1.135,0-2.167-0.771-2.451-1.926c-0.335-1.353,0.494-2.726,1.849-3.056c9.005-2.222,18.65-5.248,28.66-8.996
	c1.311-0.493,2.765,0.173,3.254,1.481s-0.173,2.765-1.481,3.254c-10.195,3.816-20.025,6.899-29.223,9.168
	C393.316,622.294,393.111,622.319,392.911,622.319z M307.092,608.86c-0.654,0-1.311-0.252-1.805-0.758
	c-5.09-5.193-9.41-11.518-12.841-18.798c-1.197-2.538-2.296-5.188-3.266-7.88c-0.474-1.313,0.208-2.762,1.521-3.236
	c1.308-0.466,2.762,0.21,3.233,1.523c0.918,2.543,1.955,5.043,3.083,7.436c3.189,6.769,7.186,12.629,11.878,17.418
	c0.978,0.995,0.963,2.597-0.034,3.574C308.368,608.618,307.731,608.86,307.092,608.86z M449.797,601.4
	c-0.951,0-1.859-0.538-2.291-1.451c-0.592-1.264-0.049-2.77,1.214-3.364c8.778-4.125,17.826-8.739,26.895-13.716
	c1.232-0.669,2.76-0.22,3.434,1c0.672,1.225,0.223,2.76-1,3.431c-9.163,5.029-18.307,9.692-27.181,13.861
	C450.522,601.324,450.157,601.4,449.797,601.4z M28.706,580.798c-1.02,0-1.982-0.624-2.365-1.634
	c-3.607-9.528-5.74-19.733-6.337-30.331c-0.079-1.395,0.987-2.587,2.379-2.666c1.454-0.062,2.59,0.989,2.666,2.382
	c0.57,10.082,2.595,19.778,6.021,28.823c0.494,1.308-0.166,2.765-1.469,3.258C29.306,580.744,29.005,580.798,28.706,580.798z
	 M503.043,572.302c-0.852,0-1.684-0.43-2.159-1.21c-0.729-1.192-0.351-2.747,0.842-3.476c6.593-4.021,13.222-8.107,19.894-12.215
	l5.93-3.653c1.194-0.73,2.747-0.36,3.479,0.829c0.73,1.19,0.36,2.745-0.827,3.477l-5.93,3.653
	c-6.678,4.112-13.313,8.2-19.914,12.224C503.947,572.183,503.493,572.302,503.043,572.302z M285.705,553.437
	c-1.328,0-2.441-1.037-2.521-2.38c-0.153-2.587-0.229-5.243-0.229-7.89c0-7.346,0.587-15.043,1.748-22.873
	c0.205-1.383,1.496-2.325,2.871-2.133c1.38,0.207,2.335,1.491,2.13,2.873c-1.123,7.589-1.693,15.033-1.693,22.133
	c0,2.548,0.074,5.105,0.22,7.594c0.082,1.393-0.98,2.59-2.375,2.671C285.806,553.437,285.754,553.437,285.705,553.437z
	 M554.765,540.625c-0.856,0-1.693-0.438-2.167-1.225c-0.722-1.194-0.336-2.75,0.858-3.471c9.593-5.781,18.159-10.827,26.189-15.424
	c1.217-0.696,2.755-0.271,3.45,0.938c0.694,1.209,0.274,2.755-0.938,3.448c-7.998,4.579-16.532,9.605-26.09,15.367
	C555.658,540.507,555.209,540.625,554.765,540.625z M25.084,521.089c-0.185,0-0.375-0.02-0.563-0.064
	c-1.363-0.309-2.214-1.664-1.903-3.026c2.345-10.294,6.08-20.021,11.099-28.906c0.691-1.217,2.234-1.645,3.446-0.958
	c1.215,0.686,1.644,2.229,0.958,3.443c-4.779,8.459-8.336,17.726-10.575,27.546C27.279,520.294,26.237,521.089,25.084,521.089z
	 M302.236,514.552c-9.259,0-17.853-1.831-26.268-5.599c-1.276-0.57-1.847-2.066-1.276-3.34c0.573-1.271,2.069-1.849,3.34-1.273
	c8.986,4.021,18.035,5.65,28.356,5.03c1.397-0.101,2.592,0.976,2.676,2.37s-0.978,2.592-2.37,2.676
	C305.177,514.508,303.69,514.552,302.236,514.552z M607.479,510.588c-0.909,0-1.788-0.491-2.239-1.354
	c-0.652-1.234-0.178-2.762,1.059-3.411c9.371-4.938,18.549-9.501,27.28-13.566c1.271-0.593,2.77-0.039,3.357,1.226
	c0.59,1.265,0.042,2.769-1.225,3.358c-8.654,4.03-17.759,8.558-27.058,13.455C608.277,510.494,607.875,510.588,607.479,510.588z
	 M954.974,510.504c-1.214,0-2.286-0.879-2.49-2.113c-0.229-1.378,0.701-2.681,2.078-2.908c8.106-1.351,15.132-4.13,21.477-8.501
	c1.15-0.792,2.728-0.5,3.515,0.647c0.793,1.149,0.504,2.724-0.646,3.517c-6.872,4.732-14.784,7.872-23.516,9.323
	C955.25,510.491,955.112,510.504,954.974,510.504z M924.801,509.761c-0.144,0-0.289-0.013-0.435-0.037
	c-8.825-1.535-18.534-4.098-29.685-7.84c-1.323-0.444-2.036-1.878-1.592-3.203c0.446-1.323,1.879-2.033,3.201-1.592
	c10.904,3.66,20.371,6.162,28.939,7.653c1.377,0.239,2.298,1.548,2.059,2.923C927.074,508.894,926.008,509.761,924.801,509.761z
	 M336.145,508.181c-1.064,0-2.054-0.677-2.402-1.743c-0.435-1.325,0.289-2.752,1.614-3.187c8.806-2.885,17.85-6.646,27.65-11.501
	c1.264-0.621,2.77-0.105,3.389,1.143c0.62,1.25,0.106,2.767-1.143,3.387c-10.022,4.965-19.287,8.815-28.322,11.775
	C336.67,508.139,336.404,508.181,336.145,508.181z M294.081,493.672c-0.252,0-0.509-0.038-0.76-0.118
	c-1.331-0.42-2.071-1.84-1.652-3.171c3.068-9.715,6.863-19.311,11.281-28.521c0.6-1.259,2.108-1.796,3.372-1.186
	c1.259,0.604,1.79,2.114,1.185,3.373c-4.315,8.996-8.021,18.367-11.015,27.854C296.151,492.982,295.154,493.672,294.081,493.672z
	 M251.673,492.643c-0.55,0-1.103-0.179-1.567-0.547c-1.925-1.525-3.871-3.093-5.855-4.691c-3.12-2.514-6.336-5.104-9.706-7.72
	c-2.624-2.038-5.421-4.007-8.312-5.852c-1.178-0.75-1.521-2.313-0.771-3.49c0.75-1.178,2.313-1.523,3.491-0.771
	c3.019,1.927,5.944,3.986,8.692,6.119c3.394,2.636,6.633,5.246,9.778,7.777c1.972,1.59,3.91,3.15,5.823,4.667
	c1.094,0.868,1.279,2.458,0.412,3.551C253.157,492.315,252.418,492.643,251.673,492.643z M867.071,491.357
	c-0.316,0-0.635-0.059-0.943-0.184c-4.182-1.681-8.366-3.392-12.535-5.096c-5.226-2.135-10.43-4.263-15.592-6.318
	c-1.296-0.517-1.93-1.987-1.411-3.284c0.513-1.296,1.977-1.929,3.283-1.413c5.174,2.061,10.395,4.194,15.633,6.335
	c4.162,1.702,8.336,3.408,12.508,5.086c1.297,0.521,1.924,1.993,1.402,3.288C869.019,490.757,868.071,491.357,867.071,491.357z
	 M662.526,485.125c-1.009,0-1.965-0.612-2.354-1.611c-0.506-1.301,0.136-2.766,1.437-3.273c9.761-3.805,19.47-7.164,28.853-9.984
	c1.355-0.406,2.745,0.357,3.149,1.693c0.4,1.337-0.357,2.747-1.693,3.147c-9.257,2.782-18.835,6.098-28.472,9.854
	C663.144,485.068,662.833,485.125,662.526,485.125z M390.68,481.873c-0.859,0-1.696-0.438-2.17-1.228
	c-0.718-1.197-0.331-2.75,0.869-3.468c5.989-3.589,11.802-7.227,16.199-9.995c3.387-2.13,6.425-4.137,9.294-6.134
	c1.143-0.801,2.718-0.517,3.518,0.628c0.797,1.145,0.516,2.721-0.629,3.519c-2.933,2.044-6.036,4.093-9.489,6.265
	c-4.418,2.782-10.262,6.438-16.295,10.055C391.571,481.757,391.122,481.873,390.68,481.873z M810.423,469.548
	c-0.252,0-0.506-0.038-0.761-0.118c-11.178-3.524-20.682-5.636-29.055-6.456c-1.39-0.136-2.404-1.373-2.269-2.761
	c0.139-1.389,1.36-2.408,2.763-2.27c8.727,0.853,18.565,3.034,30.081,6.665c1.331,0.42,2.071,1.839,1.652,3.171
	C812.494,468.858,811.496,469.548,810.423,469.548z M54.86,469.36c-0.704,0-1.405-0.293-1.903-0.865
	c-0.918-1.052-0.812-2.649,0.239-3.567c8.033-7.014,17.095-12.254,26.932-15.571c1.316-0.453,2.755,0.265,3.202,1.586
	c0.447,1.323-0.264,2.757-1.587,3.204c-9.205,3.105-17.689,8.014-25.219,14.59C56.042,469.155,55.45,469.36,54.86,469.36z
	 M720.592,467.843c-1.182,0-2.236-0.832-2.476-2.035c-0.274-1.369,0.617-2.7,1.984-2.972c10.156-2.018,20.336-3.479,30.26-4.337
	c1.407-0.14,2.614,0.91,2.735,2.299c0.121,1.391-0.908,2.617-2.301,2.736c-9.738,0.844-19.733,2.277-29.707,4.261
	C720.92,467.828,720.755,467.843,720.592,467.843z M200.359,461.011c-0.287,0-0.578-0.05-0.862-0.153
	c-0.948-0.344-1.903-0.679-2.858-1.006c-8.341-2.851-17.083-5.19-25.984-6.954c-1.37-0.271-2.259-1.602-1.987-2.971
	c0.269-1.37,1.6-2.261,2.97-1.988c9.121,1.807,18.082,4.205,26.638,7.129c0.985,0.337,1.967,0.684,2.945,1.038
	c1.313,0.477,1.99,1.926,1.516,3.238C202.364,460.372,201.394,461.011,200.359,461.011z M110.763,449.324
	c-1.316,0-2.424-1.017-2.518-2.349c-0.099-1.392,0.948-2.602,2.343-2.7c10.2-0.721,20.516-0.792,30.64-0.199
	c1.392,0.083,2.456,1.278,2.375,2.672c-0.082,1.393-1.239,2.482-2.671,2.375c-9.906-0.578-20-0.515-29.988,0.195
	C110.884,449.321,110.822,449.324,110.763,449.324z M439.281,445.91c-0.598,0-1.195-0.21-1.676-0.637
	c-1.047-0.926-1.141-2.524-0.215-3.568c7.524-8.484,11.866-16.987,12.908-25.27c0.173-1.385,1.392-2.375,2.824-2.193
	c1.385,0.174,2.367,1.438,2.192,2.823c-1.17,9.314-5.93,18.733-14.143,27.995C440.673,445.622,439.977,445.91,439.281,445.91z
	 M320.267,439.154c-0.476,0-0.96-0.134-1.387-0.416c-1.165-0.768-1.488-2.335-0.721-3.501c5.887-8.947,12.101-17.188,18.462-24.489
	c0.913-1.057,2.515-1.162,3.567-0.246c1.052,0.917,1.163,2.513,0.245,3.566c-6.213,7.133-12.286,15.19-18.053,23.949
	C321.896,438.754,321.089,439.154,320.267,439.154z M360.462,394.038c-0.763,0-1.516-0.342-2.012-0.995
	c-0.847-1.109-0.634-2.695,0.477-3.542c9.03-6.89,18.226-11.846,27.327-14.733c1.343-0.421,2.755,0.317,3.174,1.646
	c0.422,1.331-0.313,2.751-1.644,3.173c-8.549,2.71-17.226,7.398-25.792,13.934C361.536,393.869,360.996,394.038,360.462,394.038z
	 M443.556,391.488c-0.659,0-1.321-0.257-1.814-0.769c-6.087-6.28-15.068-10.86-25.288-12.899c-1.37-0.272-2.259-1.603-1.985-2.973
	c0.271-1.366,1.607-2.26,2.972-1.983c11.22,2.236,21.138,7.329,27.929,14.338c0.973,1.002,0.948,2.603-0.054,3.575
	C444.825,391.251,444.19,391.488,443.556,391.488z"/>
</svg>
