<?xml version="1.0" encoding="utf-8"?>
<!-- Generator: Adobe Illustrator 15.0.2, SVG Export Plug-In . SVG Version: 6.00 Build 0)  -->
<!DOCTYPE svg PUBLIC "-//W3C//DTD SVG 1.1//EN" "http://www.w3.org/Graphics/SVG/1.1/DTD/svg11.dtd">
<svg version="1.1" id="Layer_1" xmlns="http://www.w3.org/2000/svg" xmlns:xlink="http://www.w3.org/1999/xlink" x="0px" y="0px"
	 width="1000px" height="1000px" viewBox="0 0 1000 1000" enable-background="new 0 0 1000 1000" xml:space="preserve">
<path d="M364.639,757.029c-1.779,0-3.562-0.016-5.351-0.046c-2.156-0.034-3.876-1.808-3.842-3.966
	c0.035-2.159,1.976-3.939,3.968-3.845c15.567,0.252,31.043-0.621,46.164-2.578c2.111-0.289,4.096,1.232,4.374,3.372
	c0.276,2.139-1.232,4.096-3.371,4.374C392.829,756.122,378.717,757.025,364.639,757.029z M312.707,753.025
	c-0.196,0-0.395-0.016-0.595-0.046c-15.289-2.334-30.843-5.725-46.227-10.076c-2.077-0.587-3.282-2.745-2.696-4.82
	c0.583-2.074,2.74-3.287,4.82-2.692c15.077,4.26,30.311,7.582,45.281,9.87c2.132,0.324,3.597,2.318,3.272,4.446
	C316.267,751.645,314.602,753.025,312.707,753.025z M451.91,744.917c-1.699,0-3.263-1.117-3.753-2.829
	c-0.593-2.075,0.608-4.237,2.681-4.828c14.734-4.214,29.312-9.596,43.331-15.998c1.964-0.896,4.279-0.034,5.175,1.93
	c0.896,1.964,0.033,4.278-1.93,5.175c-14.374,6.563-29.321,12.081-44.429,16.398C452.626,744.871,452.264,744.917,451.91,744.917z
	 M536.828,706.209c-1.281,0-2.533-0.629-3.281-1.785c-1.174-1.808-0.654-4.226,1.16-5.399c12.795-8.275,25.246-17.631,37.008-27.798
	c1.631-1.415,4.096-1.231,5.506,0.4c1.412,1.633,1.236,4.096-0.396,5.507c-12.035,10.403-24.781,19.976-37.877,28.45
	C538.291,706.007,537.557,706.209,536.828,706.209z M607.6,645.206c-0.926,0-1.852-0.328-2.6-0.991
	c-1.609-1.434-1.746-3.901-0.313-5.515c10.125-11.356,19.77-23.613,28.662-36.428c1.229-1.77,3.662-2.22,5.436-0.977
	c1.773,1.229,2.207,3.661,0.979,5.431c-9.072,13.069-18.914,25.574-29.25,37.176C609.744,644.764,608.676,645.206,607.6,645.206z
	 M661.029,568.48c-0.625,0-1.258-0.149-1.85-0.47c-1.898-1.021-2.609-3.39-1.586-5.285c7.234-13.432,13.904-27.558,19.818-41.984
	c0.824-1.994,3.105-2.948,5.096-2.132c1.998,0.816,2.951,3.101,2.135,5.095c-6.025,14.679-12.809,29.053-20.174,42.721
	C663.764,567.736,662.418,568.48,661.029,568.48z M23.911,551.399c-0.256,0-0.513-0.027-0.772-0.076
	c-2.115-0.428-3.485-2.487-3.061-4.6c3.299-16.422,8.491-31.615,15.434-45.169c0.982-1.918,3.335-2.679,5.257-1.693
	c1.92,0.984,2.677,3.336,1.695,5.255c-6.617,12.913-11.571,27.428-14.729,43.144C27.362,550.117,25.734,551.399,23.911,551.399z
	 M696.625,481.964c-0.369,0-0.746-0.053-1.121-0.166c-2.066-0.62-3.236-2.795-2.619-4.862c0.773-2.576,1.521-5.164,2.254-7.764
	l3.516-12.582c2.277-8.167,4.576-16.429,6.971-24.72c0.596-2.075,2.746-3.263,4.836-2.669c2.068,0.599,3.266,2.763,2.67,4.835
	c-2.387,8.266-4.684,16.505-6.951,24.651l-2.346,8.382c0.59-0.374,1.289-0.597,2.035-0.61c11.418-0.194,22.775-0.709,33.756-1.529
	c4.053-0.303,8.313-0.658,12.748-1.074c2.139-0.198,4.051,1.375,4.248,3.524c0.207,2.147-1.373,4.052-3.523,4.252
	c-4.48,0.419-8.787,0.778-12.891,1.085c-11.127,0.833-22.637,1.354-34.207,1.552c-1.633-0.101-2.922-0.866-3.57-2.18
	c-0.672,2.374-1.357,4.735-2.063,7.088C699.859,480.87,698.307,481.964,696.625,481.964z M659.096,473.416
	c-0.068,0-0.133-0.002-0.201-0.005c-15.121-0.772-30.469-1.995-46.916-3.735c-2.143-0.227-3.699-2.151-3.475-4.296
	c0.229-2.145,2.17-3.674,4.299-3.472c16.307,1.728,31.512,2.938,46.488,3.705c2.154,0.108,3.813,1.945,3.699,4.1
	C662.883,471.795,661.158,473.416,659.096,473.416z M66.687,469.774c-1.02,0-2.041-0.399-2.807-1.19
	c-1.5-1.552-1.458-4.023,0.092-5.522c11.09-10.722,24.235-19.991,39.072-27.548c1.917-0.986,4.271-0.214,5.251,1.708
	c0.978,1.92,0.213,4.273-1.708,5.251c-14.143,7.204-26.655,16.019-37.185,26.201C68.643,469.41,67.665,469.774,66.687,469.774z
	 M799.258,465.593c-1.869,0-3.523-1.348-3.844-3.253c-0.363-2.126,1.066-4.141,3.195-4.502c16.041-2.715,31.336-6.021,45.467-9.826
	c2.086-0.559,4.225,0.677,4.789,2.757c0.557,2.082-0.676,4.226-2.762,4.786c-14.365,3.867-29.906,7.227-46.189,9.982
	C799.693,465.575,799.471,465.593,799.258,465.593z M565.91,463.781c-0.191,0-0.381-0.014-0.572-0.042
	c-14.209-2.079-29.377-4.517-46.369-7.452c-2.125-0.366-3.551-2.387-3.186-4.513c0.367-2.122,2.373-3.564,4.516-3.183
	c16.926,2.923,32.027,5.351,46.172,7.421c2.131,0.311,3.611,2.294,3.299,4.43C569.484,462.383,567.816,463.781,565.91,463.781z
	 M473.512,448.048c-0.234,0-0.473-0.021-0.713-0.064l-14.822-2.746c-10.417-1.934-20.834-3.867-31.252-5.766
	c-2.123-0.387-3.53-2.421-3.143-4.542c0.387-2.122,2.423-3.522,4.542-3.143c10.428,1.901,20.853,3.836,31.279,5.77l14.814,2.746
	c2.121,0.393,3.522,2.429,3.131,4.549C477.001,446.734,475.359,448.048,473.512,448.048z M889.465,440.606
	c-1.521,0-2.967-0.893-3.596-2.378c-0.844-1.985,0.08-4.279,2.063-5.122c15.4-6.554,28.9-14.04,40.127-22.252
	c1.74-1.274,4.188-0.893,5.461,0.846c1.266,1.741,0.893,4.184-0.854,5.458c-11.709,8.565-25.727,16.347-41.676,23.133
	C890.49,440.505,889.973,440.606,889.465,440.606z M381.272,431.443c-0.214,0-0.429-0.017-0.645-0.053
	c-16.717-2.772-31.833-5.063-46.211-7c-2.138-0.288-3.637-2.256-3.349-4.393c0.288-2.14,2.269-3.617,4.394-3.349
	c14.457,1.951,29.649,4.252,46.444,7.038c2.128,0.353,3.566,2.363,3.213,4.491C384.801,430.088,383.146,431.443,381.272,431.443z
	 M148.662,426.648c-1.741,0-3.328-1.169-3.779-2.931c-0.538-2.09,0.719-4.218,2.809-4.756c14.383-3.703,30.099-6.422,46.709-8.081
	c2.175-0.206,4.06,1.354,4.275,3.497c0.213,2.147-1.352,4.06-3.497,4.275c-16.219,1.621-31.541,4.269-45.542,7.871
	C149.311,426.608,148.982,426.648,148.662,426.648z M288.387,419.145c-0.114,0-0.232-0.006-0.349-0.015l-5.066-0.438
	c-14.236-1.196-28.169-1.865-41.41-1.993c-2.157-0.021-3.888-1.787-3.867-3.943c0.021-2.143,1.766-3.867,3.905-3.867
	c0.011,0,0.024,0,0.038,0c13.432,0.13,27.559,0.809,41.988,2.02l5.103,0.442c2.149,0.19,3.735,2.088,3.545,4.237
	C292.092,417.615,290.388,419.145,288.387,419.145z M723.543,392.186c-0.439,0-0.881-0.074-1.316-0.229
	c-2.033-0.727-3.09-2.961-2.365-4.992c5.861-16.4,11.902-30.658,18.463-43.58c0.977-1.924,3.332-2.69,5.25-1.714
	c1.926,0.977,2.689,3.328,1.713,5.25c-6.41,12.627-12.322,26.585-18.068,42.672C726.646,391.189,725.145,392.186,723.543,392.186z
	 M962.412,384.2c-0.693,0-1.396-0.185-2.037-0.574c-1.838-1.127-2.418-3.531-1.289-5.37c7.842-12.806,12.25-27.063,13.111-42.377
	c0.123-2.151,1.998-3.823,4.119-3.68c2.15,0.122,3.799,1.964,3.676,4.119c-0.93,16.616-5.721,32.098-14.248,46.015
	C965.014,383.537,963.732,384.2,962.412,384.2z M766.83,309.549c-0.854,0-1.711-0.278-2.43-0.851
	c-1.689-1.344-1.967-3.8-0.625-5.488c10.221-12.827,21.77-23.985,34.334-33.163c1.744-1.274,4.184-0.891,5.457,0.851
	c1.275,1.741,0.893,4.186-0.85,5.457c-12.002,8.766-23.045,19.438-32.832,31.722C769.115,309.045,767.979,309.549,766.83,309.549z
	 M966.813,294.739c-1.381,0-2.723-0.734-3.432-2.031c-6.949-12.707-17.658-22.861-31.828-30.175
	c-1.914-0.99-2.662-3.345-1.678-5.261c0.99-1.918,3.34-2.67,5.262-1.68c15.582,8.043,27.389,19.271,35.094,33.367
	c1.037,1.894,0.342,4.266-1.549,5.301C968.086,294.584,967.445,294.739,966.813,294.739z M842,256.097
	c-1.693,0-3.252-1.112-3.748-2.82c-0.6-2.071,0.592-4.237,2.666-4.837c15.311-4.439,31.531-6.216,47.701-5.183
	c2.15,0.139,3.783,1.996,3.645,4.149c-0.137,2.153-1.951,3.787-4.148,3.646c-15.244-0.978-30.578,0.7-45.023,4.889
	C842.725,256.046,842.359,256.095,842,256.097z"/>
</svg>
