<?xml version="1.0" encoding="utf-8"?>
<!-- Generator: Adobe Illustrator 15.0.2, SVG Export Plug-In . SVG Version: 6.00 Build 0)  -->
<!DOCTYPE svg PUBLIC "-//W3C//DTD SVG 1.1//EN" "http://www.w3.org/Graphics/SVG/1.1/DTD/svg11.dtd">
<svg version="1.1" id="Layer_1" xmlns="http://www.w3.org/2000/svg" xmlns:xlink="http://www.w3.org/1999/xlink" x="0px" y="0px"
	 width="1000px" height="1000px" viewBox="0 0 1000 1000" enable-background="new 0 0 1000 1000" xml:space="preserve">
<path d="M474.003,582.7c-16.504,0-33.292-1.243-49.896-3.698c-2.423-0.359-4.097-2.611-3.74-5.037
	c0.359-2.421,2.631-4.063,5.034-3.737c16.178,2.391,32.531,3.604,48.602,3.604l3.742-0.021c2.564-0.009,4.457,1.939,4.48,4.387
	c0.026,2.451-1.94,4.456-4.389,4.482L474.003,582.7z M530.676,577.919c-2.127,0-4.007-1.533-4.366-3.703
	c-0.406-2.416,1.226-4.703,3.639-5.105c16.751-2.798,33.485-6.773,51.163-12.148c2.339-0.705,4.824,0.606,5.535,2.954
	c0.71,2.343-0.606,4.82-2.954,5.535c-18.051,5.486-35.148,9.545-52.281,12.407C531.165,577.901,530.918,577.919,530.676,577.919z
	 M373.406,565.234c-0.489,0-0.985-0.082-1.472-0.251c-14.928-5.254-31.485-11.585-50.021-18.714
	c-2.287-0.879-3.428-3.447-2.546-5.733c0.879-2.287,3.443-3.413,5.729-2.547c18.471,7.106,34.967,13.412,49.782,18.627
	c2.311,0.814,3.523,3.343,2.711,5.655C376.949,564.095,375.236,565.234,373.406,565.234z M632.466,547.69
	c-1.75,0-3.413-1.039-4.114-2.764c-0.918-2.265,0.169-4.854,2.434-5.776c14.426-5.877,29.826-12.672,48.47-21.39
	c2.213-1.026,4.859-0.078,5.898,2.139c1.035,2.222,0.078,4.859-2.139,5.898c-18.787,8.779-34.317,15.63-48.877,21.563
	C633.587,547.586,633.02,547.69,632.466,547.69z M273.714,527.621c-0.513,0-1.033-0.086-1.542-0.276
	c-18.789-6.969-35.172-12.729-50.087-17.609c-2.328-0.762-3.597-3.266-2.834-5.591c0.76-2.33,3.256-3.604,5.593-2.837
	c15.025,4.916,31.515,10.71,50.412,17.722c2.297,0.854,3.469,3.404,2.616,5.699C277.209,526.518,275.516,527.621,273.714,527.621z
	 M24.431,517.436c-0.795,0-1.598-0.212-2.324-0.658c-2.085-1.286-2.732-4.019-1.446-6.103c9.709-15.75,24.967-26.313,45.343-31.393
	c2.364-0.576,4.781,0.853,5.374,3.23c0.594,2.377-0.853,4.786-3.23,5.379c-18.302,4.56-31.366,13.534-39.938,27.435
	C27.372,516.687,25.918,517.436,24.431,517.436z M729.163,503.278c-1.654,0-3.239-0.927-4.002-2.516
	c-1.065-2.209-0.13-4.859,2.079-5.916c15.253-7.319,31.675-15.105,48.374-22.494c2.235-1.005,4.859,0.021,5.847,2.26
	c0.996,2.239-0.017,4.859-2.261,5.847c-16.587,7.345-32.931,15.097-48.123,22.381C730.453,503.14,729.804,503.278,729.163,503.278z
	 M172.353,495.089c-0.353,0-0.712-0.043-1.07-0.13c-19.044-4.712-36.45-7.865-51.727-9.368c-2.438-0.238-4.22-2.408-3.98-4.846
	c0.24-2.438,2.404-4.196,4.846-3.979c15.703,1.542,33.533,4.768,52.991,9.584c2.377,0.589,3.829,2.992,3.239,5.37
	C176.153,493.738,174.342,495.089,172.353,495.089z M826.7,460.858c-1.818,0-3.517-1.122-4.175-2.928
	c-0.831-2.304,0.364-4.846,2.668-5.677c17.912-6.475,34.698-11.589,51.311-15.643c2.391-0.589,4.781,0.875,5.361,3.257
	c0.581,2.382-0.883,4.781-3.257,5.361c-16.301,3.976-32.783,9-50.401,15.366C827.705,460.776,827.203,460.858,826.7,460.858z
	 M921.765,431.197c-1.779-0.359-3.227-1.793-3.503-3.694c-0.364-2.421,1.308-4.677,3.732-5.037
	c18.844-2.793,36.31-4.482,53.395-5.162c2.464-0.104,4.513,1.806,4.607,4.257c0.1,2.447-1.81,4.508-4.257,4.604
	c-16.76,0.667-33.914,2.326-52.445,5.072C922.77,431.318,922.259,431.297,921.765,431.197z"/>
</svg>
