<?xml version="1.0" encoding="utf-8"?>
<!-- Generator: Adobe Illustrator 15.0.2, SVG Export Plug-In . SVG Version: 6.00 Build 0)  -->
<!DOCTYPE svg PUBLIC "-//W3C//DTD SVG 1.1//EN" "http://www.w3.org/Graphics/SVG/1.1/DTD/svg11.dtd">
<svg version="1.1" id="Layer_1" xmlns="http://www.w3.org/2000/svg" xmlns:xlink="http://www.w3.org/1999/xlink" x="0px" y="0px"
	 width="1000px" height="1000px" viewBox="0 0 1000 1000" enable-background="new 0 0 1000 1000" xml:space="preserve">
<path d="M373.803,611.133c-1.25,0-2.27-1.005-2.286-2.26c-0.015-1.262,0.997-2.296,2.26-2.313c9.048-0.107,18.21-0.559,27.232-1.345
	c1.292-0.116,2.367,0.822,2.477,2.082c0.109,1.257-0.822,2.367-2.079,2.474c-9.135,0.796-18.414,1.256-27.576,1.362
	C373.822,611.133,373.813,611.133,373.803,611.133z M346.38,610.428c-0.047,0-0.094,0-0.142-0.005
	c-9.391-0.574-18.631-1.369-27.464-2.362c-1.255-0.139-2.157-1.273-2.017-2.528s1.262-2.171,2.528-2.015
	c8.755,0.982,17.917,1.771,27.231,2.341c1.261,0.076,2.22,1.161,2.143,2.421C348.586,609.494,347.58,610.428,346.38,610.428z
	 M22.29,607.348c-0.804,0-1.583-0.424-2.002-1.177c-0.613-1.104-0.214-2.497,0.89-3.108c6.523-3.623,14.078-7.531,24.492-12.677
	c1.13-0.563,2.503-0.094,3.063,1.036c0.559,1.135,0.095,2.506-1.038,3.064c-10.346,5.109-17.839,8.989-24.297,12.573
	C23.045,607.256,22.665,607.348,22.29,607.348z M428.431,606.388c-1.102,0-2.072-0.798-2.254-1.919
	c-0.203-1.246,0.642-2.423,1.889-2.626c8.955-1.456,17.946-3.271,26.726-5.392c1.223-0.29,2.462,0.461,2.759,1.688
	c0.296,1.229-0.459,2.464-1.688,2.761c-8.891,2.144-17.996,3.979-27.063,5.458C428.677,606.379,428.553,606.388,428.431,606.388z
	 M291.854,604.21c-0.13,0-0.262-0.009-0.395-0.031c-9.299-1.621-18.389-3.533-27.016-5.688c-1.226-0.306-1.971-1.547-1.665-2.771
	c0.306-1.229,1.55-1.974,2.772-1.666c8.521,2.126,17.502,4.018,26.692,5.619c1.245,0.215,2.078,1.4,1.861,2.645
	C293.91,603.429,292.944,604.21,291.854,604.21z M481.732,593.513c-0.965,0-1.861-0.616-2.175-1.584
	c-0.39-1.201,0.268-2.489,1.47-2.881c8.658-2.807,17.263-5.979,25.573-9.42c1.168-0.486,2.506,0.069,2.988,1.237
	c0.484,1.168-0.069,2.504-1.237,2.988c-8.422,3.488-17.141,6.7-25.913,9.545C482.203,593.475,481.965,593.513,481.732,593.513z
	 M238.682,590.802c-0.247,0-0.497-0.041-0.744-0.126c-8.944-3.077-17.582-6.543-25.672-10.302c-1.146-0.531-1.643-1.892-1.11-3.037
	c0.532-1.146,1.894-1.644,3.037-1.11c7.948,3.694,16.437,7.1,25.232,10.126c1.195,0.411,1.83,1.711,1.419,2.905
	C240.519,590.207,239.631,590.802,238.682,590.802z M71.364,582.661c-0.846,0-1.659-0.472-2.056-1.282
	c-0.556-1.132-0.086-2.503,1.049-3.058c6.733-3.296,15.605-7.673,24.512-12.278c1.124-0.58,2.502-0.143,3.082,0.979
	c0.581,1.123,0.142,2.501-0.98,3.082c-8.948,4.629-17.848,9.018-24.604,12.323C72.044,582.587,71.701,582.661,71.364,582.661z
	 M532.403,572.564c-0.84,0-1.648-0.465-2.046-1.264c-0.567-1.131-0.107-2.506,1.022-3.069c7.823-3.905,15.731-8.08,23.379-12.115
	l0.938-0.493c1.121-0.59,2.501-0.161,3.091,0.953c0.59,1.119,0.161,2.499-0.956,3.089l-0.938,0.495
	c-7.669,4.05-15.602,8.234-23.47,12.163C533.096,572.488,532.747,572.564,532.403,572.564z M189.099,567.57
	c-0.413,0-0.832-0.111-1.208-0.346c-7.984-4.98-15.54-10.454-22.46-16.27c-0.966-0.813-1.092-2.256-0.279-3.221
	c0.813-0.969,2.257-1.092,3.223-0.281c6.754,5.677,14.136,11.023,21.938,15.89c1.072,0.668,1.398,2.079,0.73,3.151
	C190.607,567.188,189.861,567.57,189.099,567.57z M120.056,557.246c-0.792,0-1.561-0.411-1.984-1.146
	c-0.63-1.095-0.253-2.492,0.842-3.122c8.532-4.911,16.119-9.617,23.193-14.387c1.047-0.708,2.469-0.432,3.174,0.618
	c0.706,1.045,0.43,2.468-0.617,3.174c-7.166,4.833-14.841,9.594-23.47,14.557C120.836,557.147,120.443,557.246,120.056,557.246z
	 M876.53,547.366h-0.518c-8.649,0-17.512-0.444-27.095-1.355c-1.257-0.118-2.18-1.235-2.059-2.495
	c0.118-1.255,1.206-2.18,2.492-2.059c9.438,0.897,18.159,1.335,26.661,1.335h0.518c1.265,0,2.287,1.023,2.287,2.287
	C878.817,546.341,877.795,547.366,876.53,547.366z M581.151,547.342c-0.842,0-1.652-0.467-2.05-1.273
	c-0.561-1.132-0.099-2.503,1.036-3.063c9.25-4.576,17.478-8.306,25.145-11.401c1.175-0.469,2.503,0.094,2.977,1.267
	c0.472,1.172-0.094,2.503-1.266,2.977c-7.561,3.051-15.681,6.731-24.828,11.258C581.839,547.266,581.493,547.342,581.151,547.342z
	 M903.891,545.629c-1.132,0-2.115-0.836-2.265-1.988c-0.165-1.253,0.717-2.4,1.97-2.565c9.51-1.249,18.132-3.134,26.362-5.765
	c1.21-0.386,2.49,0.277,2.874,1.48c0.386,1.204-0.277,2.49-1.48,2.875c-8.493,2.716-17.378,4.658-27.161,5.944
	C904.09,545.624,903.989,545.629,903.891,545.629z M821.927,542.466c-0.121,0-0.243-0.009-0.366-0.031
	c-7.87-1.266-16.475-2.822-27.081-4.895c-1.239-0.241-2.048-1.443-1.807-2.685c0.243-1.237,1.442-2.051,2.683-1.805
	c10.557,2.063,19.114,3.609,26.933,4.868c1.247,0.201,2.096,1.376,1.895,2.622C824.001,541.667,823.03,542.466,821.927,542.466z
	 M147.331,532.305c-0.638,0-1.272-0.266-1.724-0.784c-3.966-4.547-7.738-9.354-11.211-14.293c-1.729-2.456-3.504-5.179-5.274-8.087
	c-0.658-1.076-0.314-2.482,0.764-3.14c1.076-0.661,2.485-0.317,3.142,0.764c1.718,2.821,3.437,5.456,5.108,7.83
	c3.381,4.811,7.055,9.491,10.917,13.92c0.831,0.952,0.732,2.396-0.22,3.228C148.399,532.119,147.863,532.305,147.331,532.305z
	 M768.004,532.207c-0.147,0-0.295-0.014-0.446-0.043c-7.901-1.57-17.279-3.396-26.914-5.04c-1.246-0.215-2.081-1.396-1.869-2.641
	c0.213-1.243,1.392-2.085,2.64-1.871c9.688,1.657,19.102,3.49,27.034,5.065c1.239,0.245,2.044,1.451,1.798,2.688
	C770.029,531.456,769.073,532.207,768.004,532.207z M955.679,528.683c-0.786,0-1.553-0.406-1.977-1.135
	c-0.637-1.09-0.271-2.492,0.821-3.127c7.613-4.444,14.695-9.668,21.652-15.972c0.936-0.847,2.383-0.775,3.231,0.16
	s0.777,2.381-0.158,3.229c-7.196,6.521-14.53,11.926-22.42,16.531C956.467,528.582,956.069,528.683,955.679,528.683z
	 M632.126,527.275c-1.014,0-1.94-0.681-2.211-1.706c-0.319-1.224,0.409-2.475,1.631-2.796c6.041-1.586,12.084-2.841,17.96-3.721
	c3.063-0.463,6.215-0.857,9.368-1.18c1.265-0.134,2.379,0.784,2.506,2.041c0.13,1.256-0.786,2.381-2.041,2.506
	c-3.082,0.317-6.159,0.704-9.152,1.152c-5.715,0.86-11.595,2.08-17.478,3.627C632.513,527.249,632.318,527.275,632.126,527.275z
	 M165.341,526.311c-0.651,0-1.296-0.276-1.749-0.813c-0.815-0.965-0.692-2.408,0.272-3.221c7.339-6.195,13.836-12.564,19.308-18.94
	c0.823-0.958,2.269-1.067,3.225-0.246c0.958,0.824,1.068,2.268,0.246,3.226c-5.631,6.559-12.302,13.104-19.828,19.454
	C166.385,526.134,165.861,526.311,165.341,526.311z M713.874,523.251c-0.083,0-0.17-0.005-0.258-0.014
	c-9.661-1.076-18.545-1.684-27.152-1.857c-1.264-0.024-2.267-1.067-2.242-2.332c0.027-1.264,1.095-2.262,2.332-2.242
	c8.75,0.179,17.768,0.795,27.572,1.888c1.255,0.141,2.157,1.271,2.019,2.525C716.016,522.389,715.023,523.251,713.874,523.251z
	 M118.506,485.851c-0.884,0-1.726-0.516-2.1-1.38c-3.912-9.047-6.961-17.886-9.065-26.279c-0.307-1.224,0.438-2.468,1.663-2.774
	c1.226-0.304,2.467,0.438,2.775,1.662c2.042,8.151,5.011,16.759,8.826,25.576c0.501,1.159-0.032,2.506-1.191,3.006
	C119.117,485.791,118.809,485.851,118.506,485.851z M200.335,484.524c-0.353,0-0.711-0.083-1.046-0.254
	c-1.122-0.579-1.563-1.958-0.984-3.08c3.767-7.303,6.506-14.896,8.143-22.57c0.182-0.853,0.337-1.706,0.467-2.557
	c0.192-1.249,1.375-2.099,2.605-1.918c1.249,0.192,2.107,1.358,1.917,2.606c-0.143,0.94-0.316,1.88-0.516,2.821
	c-1.722,8.073-4.598,16.05-8.551,23.713C201.964,484.073,201.164,484.524,200.335,484.524z M106.372,432.756
	c-0.038,0-0.075-0.002-0.113-0.002c-1.262-0.063-2.236-1.135-2.174-2.395c0.534-10.981,3.722-19.99,9.475-26.779
	c0.815-0.965,2.258-1.085,3.223-0.263c0.964,0.815,1.083,2.258,0.266,3.22c-5.086,6.003-7.911,14.092-8.394,24.042
	C108.594,431.803,107.583,432.756,106.372,432.756z M205.569,431.856c-0.891,0-1.737-0.522-2.106-1.396
	c-3.318-7.825-8.642-15.173-15.394-21.243c-0.939-0.844-1.016-2.292-0.172-3.229c0.847-0.938,2.292-1.016,3.229-0.172
	c7.247,6.517,12.97,14.42,16.547,22.86c0.493,1.161-0.05,2.506-1.214,2.997C206.17,431.798,205.866,431.856,205.569,431.856z
	 M166.03,396.13c-0.231,0-0.467-0.036-0.699-0.111c-8.005-2.568-16.189-3.234-23.877-1.93c-0.696,0.118-1.377,0.246-2.046,0.384
	c-1.235,0.25-2.445-0.547-2.698-1.784c-0.253-1.237,0.545-2.445,1.782-2.698c0.718-0.147,1.451-0.284,2.198-0.41
	c8.405-1.426,17.335-0.71,26.038,2.083c1.204,0.384,1.866,1.672,1.479,2.876C167.896,395.51,166.998,396.13,166.03,396.13z"/>
</svg>
