<?xml version="1.0" encoding="utf-8"?>
<!-- Generator: Adobe Illustrator 15.0.2, SVG Export Plug-In . SVG Version: 6.00 Build 0)  -->
<!DOCTYPE svg PUBLIC "-//W3C//DTD SVG 1.1//EN" "http://www.w3.org/Graphics/SVG/1.1/DTD/svg11.dtd">
<svg version="1.1" id="Layer_1" xmlns="http://www.w3.org/2000/svg" xmlns:xlink="http://www.w3.org/1999/xlink" x="0px" y="0px"
	 width="1000px" height="1000px" viewBox="0 0 1000 1000" enable-background="new 0 0 1000 1000" xml:space="preserve">
<path d="M131.37,873.631c-21.169,0-39.651-2.779-54.935-8.266c-3.272-1.174-4.976-4.785-3.801-8.057
	c1.174-3.271,4.791-4.982,8.057-3.801c18.709,6.715,43.188,8.941,72.076,6.629c3.555-0.313,6.507,2.313,6.784,5.77
	c0.276,3.469-2.307,6.508-5.775,6.783C146.039,873.311,138.499,873.631,131.37,873.631z M227.66,859.559
	c-2.804,0-5.363-1.887-6.095-4.734c-0.861-3.371,1.168-6.803,4.539-7.664c22.664-5.807,46.724-13.377,71.516-22.498
	c3.254-1.211,6.889,0.467,8.088,3.734c1.199,3.266-0.474,6.881-3.733,8.086c-25.191,9.264-49.67,16.963-72.746,22.881
	C228.706,859.498,228.176,859.559,227.66,859.559z M29.416,812.822c-2.817,0-5.388-1.906-6.101-4.766
	C21.113,799.273,20,789.525,20,779.088l0.012-1.66c0.154-14.33,5.702-29.879,16.489-46.201c1.919-2.91,5.831-3.697,8.721-1.783
	c2.903,1.918,3.703,5.818,1.784,8.721c-9.429,14.275-14.269,27.529-14.398,39.412l-0.013,1.512c0,9.41,0.99,18.125,2.934,25.906
	c0.849,3.375-1.206,6.795-4.576,7.639C30.437,812.762,29.927,812.822,29.416,812.822z M369.652,807.871
	c-2.38,0-4.656-1.352-5.72-3.652c-1.464-3.162-0.086-6.9,3.069-8.365c23.611-10.922,46.693-22.811,66.744-34.379
	c3.001-1.748,6.857-0.715,8.604,2.299c1.74,3.014,0.707,6.865-2.307,8.611c-20.665,11.92-43.464,23.666-67.752,34.902
	C371.436,807.688,370.538,807.871,369.652,807.871z M498.766,729.922c-1.636,0-3.271-0.639-4.502-1.895
	c-2.436-2.49-2.386-6.482,0.099-8.91c1.384-1.348,2.626-2.652,3.739-3.918c16.888-19.146,30.019-37.85,39.023-55.588
	c1.575-3.105,5.352-4.354,8.47-2.768c3.1,1.574,4.336,5.363,2.762,8.463c-9.49,18.697-23.218,38.279-40.808,58.227
	c-1.298,1.469-2.762,3.006-4.379,4.594C501.945,729.32,500.353,729.922,498.766,729.922z M93.564,686.219
	c-1.802,0-3.585-0.77-4.834-2.258c-2.232-2.662-1.882-6.637,0.787-8.875c17.19-14.398,37.868-29.645,61.454-45.303
	c2.891-1.926,6.802-1.133,8.728,1.766c1.925,2.896,1.138,6.809-1.765,8.727c-23.193,15.406-43.495,30.371-60.335,44.467
	C96.424,685.732,94.985,686.219,93.564,686.219z M218.865,601.59c-2.177,0-4.287-1.131-5.455-3.148
	c-1.747-3.008-0.714-6.865,2.294-8.605c20.462-11.838,42.222-23.832,66.522-36.662c3.069-1.623,6.882-0.436,8.512,2.633
	c1.624,3.076,0.442,6.889-2.632,8.512c-24.152,12.75-45.777,24.664-66.092,36.422C221.018,601.313,219.935,601.59,218.865,601.59z
	 M558.185,595.92c-3.155,0-5.874-2.363-6.249-5.572c-2.571-22.068-13.058-43.311-31.164-63.141c-2.35-2.57-2.165-6.555,0.406-8.893
	c2.559-2.35,6.544-2.172,8.894,0.4c19.927,21.82,31.489,45.432,34.374,70.18c0.406,3.451-2.072,6.582-5.523,6.982
	C558.67,595.906,558.424,595.92,558.185,595.92z M352.456,530.271c-2.263,0-4.453-1.225-5.578-3.365
	c-1.624-3.082-0.443-6.889,2.638-8.506c19.448-10.246,40.334-21.932,65.741-36.766c2.995-1.765,6.864-0.75,8.61,2.257
	c1.753,3.007,0.744,6.857-2.263,8.616c-25.561,14.934-46.607,26.699-66.221,37.037C354.449,530.037,353.446,530.271,352.456,530.271
	z M466.133,482.833c-1.095,0-2.208-0.289-3.223-0.892c-5.351-3.186-11.046-6.409-16.932-9.558
	c-19.177-10.259-34.737-18.968-48.975-27.418c-2.995-1.771-3.979-5.634-2.208-8.629c1.777-2.995,5.652-3.979,8.629-2.202
	c14.078,8.346,29.491,16.975,48.496,27.141c6.058,3.248,11.932,6.557,17.448,9.853c2.983,1.784,3.961,5.646,2.177,8.635
	C470.37,481.739,468.279,482.833,466.133,482.833z M483.396,454.684c-2.14,0-4.225-1.095-5.406-3.057
	c-1.79-2.983-0.824-6.852,2.159-8.642c19.958-11.993,42.578-25.591,65.002-38.716c2.983-1.759,6.852-0.756,8.617,2.257
	c1.753,3.001,0.744,6.857-2.258,8.617c-22.362,13.082-44.946,26.662-64.879,38.636C485.617,454.388,484.504,454.684,483.396,454.684
	z M337.357,403.918c-1.334,0-2.681-0.418-3.819-1.297c-22.221-17.006-41.127-34.608-56.195-52.309
	c-2.251-2.651-1.931-6.63,0.713-8.881c2.651-2.245,6.618-1.937,8.881,0.713c14.49,17.024,32.745,34.012,54.252,50.476
	c2.761,2.109,3.29,6.07,1.174,8.826C341.127,403.07,339.251,403.918,337.357,403.918z M614.171,378.813
	c-2.239,0-4.41-1.193-5.548-3.303c-1.654-3.057-0.511-6.882,2.546-8.531c24.146-13.044,46.324-24.263,67.796-34.294
	c3.18-1.476,6.906-0.111,8.376,3.038c1.471,3.149,0.111,6.901-3.038,8.365c-21.256,9.939-43.218,21.046-67.143,33.974
	C616.206,378.573,615.18,378.813,614.171,378.813z M751.342,315.532c-2.571,0-4.982-1.587-5.917-4.139
	c-1.193-3.272,0.492-6.888,3.758-8.082c25.063-9.14,49.646-16.532,73.066-21.944c3.389-0.775,6.771,1.322,7.559,4.711
	c0.781,3.389-1.329,6.771-4.718,7.553c-22.922,5.308-47.007,12.547-71.59,21.514C752.787,315.403,752.062,315.532,751.342,315.532z
	 M243.509,288.053c-2.571,0-4.982-1.581-5.917-4.139c-7.085-19.368-10.831-39.565-10.831-58.41c0.006-6.489,0.443-12.848,1.298-18.9
	c0.486-3.438,3.666-5.843,7.116-5.351c3.444,0.479,5.843,3.666,5.357,7.11c-0.775,5.48-1.168,11.249-1.174,17.147
	c0,17.381,3.481,36.078,10.068,54.074c1.193,3.272-0.486,6.888-3.751,8.082C244.96,287.923,244.229,288.053,243.509,288.053z
	 M973.707,285.021c-0.277,0-0.56-0.025-0.849-0.062c-23.962-3.229-48.853-4.047-74.155-2.398c-3.629,0.246-6.464-2.411-6.691-5.88
	c-0.222-3.475,2.411-6.47,5.88-6.691c26.133-1.698,51.866-0.849,76.651,2.484c3.444,0.468,5.861,3.641,5.4,7.085
	C979.519,282.72,976.813,285.021,973.707,285.021z M272.182,151.355c-2.128,0-4.201-1.077-5.388-3.026
	c-1.808-2.97-0.861-6.845,2.109-8.653c20.29-12.337,46.675-16.175,77.513-11.181c3.432,0.56,5.763,3.794,5.209,7.233
	c-0.56,3.419-3.74,5.744-7.227,5.203c-27.775-4.502-51.263-1.243-68.952,9.508C274.427,151.06,273.295,151.355,272.182,151.355z"/>
</svg>
