<?xml version="1.0" encoding="utf-8"?>
<!-- Generator: Adobe Illustrator 15.0.2, SVG Export Plug-In . SVG Version: 6.00 Build 0)  -->
<!DOCTYPE svg PUBLIC "-//W3C//DTD SVG 1.1//EN" "http://www.w3.org/Graphics/SVG/1.1/DTD/svg11.dtd">
<svg version="1.1" id="Layer_1" xmlns="http://www.w3.org/2000/svg" xmlns:xlink="http://www.w3.org/1999/xlink" x="0px" y="0px"
	 width="1000px" height="1000px" viewBox="0 0 1000 1000" enable-background="new 0 0 1000 1000" xml:space="preserve">
<path d="M975.681,736.77c-0.422,0-0.855-0.067-1.281-0.198c-18.559-5.771-34.718-11.155-49.394-16.468
	c-2.239-0.813-3.398-3.288-2.589-5.527c0.813-2.242,3.28-3.397,5.531-2.593c14.549,5.266,30.582,10.611,49.015,16.341
	c2.276,0.709,3.55,3.129,2.841,5.405C979.227,735.58,977.523,736.77,975.681,736.77z M878.395,700.959
	c-0.595,0-1.201-0.126-1.779-0.388c-17.218-7.816-32.8-16.037-46.315-24.436c-2.028-1.256-2.647-3.921-1.392-5.944
	c1.257-2.023,3.917-2.647,5.944-1.391c13.2,8.204,28.453,16.248,45.33,23.908c2.171,0.986,3.132,3.545,2.146,5.717
	C881.607,700.015,880.039,700.959,878.395,700.959z M627.203,675.892c-5.666,0-11.164-0.338-16.333-0.995
	c-6.108-0.775-12.373-2.238-18.625-4.343c-2.26-0.759-3.479-3.203-2.72-5.463s3.208-3.479,5.468-2.716
	c5.717,1.919,11.426,3.251,16.965,3.955c9.781,1.248,20.747,1.23,32.412-0.051c2.398-0.27,4.503,1.45,4.764,3.819
	c0.262,2.369-1.45,4.503-3.819,4.764C639.079,675.546,632.983,675.892,627.203,675.892z M695.281,663.404
	c-1.813,0-3.499-1.151-4.098-2.964c-0.751-2.264,0.48-4.709,2.744-5.455c15.515-5.127,31.43-11.708,47.307-19.566
	c2.146-1.054,4.727-0.177,5.784,1.956c1.059,2.134,0.182,4.726-1.956,5.784c-16.235,8.035-32.529,14.772-48.428,20.025
	C696.188,663.332,695.729,663.404,695.281,663.404z M791.699,645.132c-1.104,0-2.209-0.421-3.053-1.265
	c-13.781-13.769-23.832-28.55-29.874-43.93c-0.872-2.222,0.22-4.729,2.441-5.599c2.218-0.868,4.726,0.22,5.595,2.438
	c5.603,14.274,15.004,28.061,27.942,40.982c1.687,1.682,1.687,4.418,0.005,6.104C793.912,644.711,792.804,645.132,791.699,645.132z
	 M549.475,644.331c-1.033,0-2.065-0.366-2.893-1.113c-12.711-11.476-22.884-24.73-29.41-38.317
	c-0.712-1.497-1.416-3.002-2.104-4.532c-0.978-2.176-0.009-4.73,2.167-5.709c2.171-0.978,4.727-0.008,5.708,2.167
	c0.662,1.468,1.333,2.918,2.016,4.343c6.041,12.58,15.522,24.907,27.407,35.642c1.771,1.598,1.91,4.325,0.313,6.096
	C551.827,643.851,550.65,644.331,549.475,644.331z M40.43,624.424c-5.679,0-11.307-0.396-16.733-1.188
	c-2.361-0.342-3.997-2.534-3.651-4.891c0.342-2.361,2.504-3.988,4.891-3.651c15.367,2.243,32.117,1.028,49.579-3.558
	c2.31-0.607,4.667,0.771,5.27,3.077c0.607,2.311-0.771,4.667-3.078,5.274C64.233,622.763,52.028,624.424,40.43,624.424z
	 M788.002,617.687c-1.392,0-2.753-0.666-3.588-1.905c-1.328-1.981-0.806-4.663,1.176-5.995c9.765-6.564,18.613-13.233,26.295-19.823
	c3.752-3.212,8.204-7.529,12.875-12.487c1.632-1.732,4.372-1.813,6.101-0.177c1.737,1.636,1.817,4.367,0.182,6.104
	c-4.878,5.173-9.558,9.709-13.537,13.119c-7.935,6.805-17.054,13.677-27.101,20.431C789.667,617.45,788.828,617.687,788.002,617.687
	z M123.39,599.93c-1.518,0-2.993-0.802-3.781-2.227c-1.155-2.082-0.401-4.713,1.686-5.868c14.068-7.795,28.301-17.407,42.307-28.575
	c1.863-1.493,4.579-1.177,6.067,0.683c1.484,1.868,1.18,4.583-0.688,6.071c-14.376,11.463-29.014,21.349-43.504,29.376
	C124.815,599.757,124.099,599.93,123.39,599.93z M296.967,573.546c-0.076,0-0.152,0-0.228-0.004
	c-18.672-0.974-36.177-3.348-52.037-7.049c-2.318-0.544-3.765-2.862-3.221-5.182c0.54-2.327,2.837-3.777,5.186-3.225
	c15.363,3.583,32.361,5.881,50.519,6.834c2.382,0.126,4.212,2.154,4.089,4.536C301.154,571.759,299.248,573.546,296.967,573.546z
	 M348.739,572.947c-2.251,0-4.145-1.745-4.305-4.021c-0.16-2.378,1.632-4.439,4.014-4.604c16.37-1.13,33.554-3.129,51.067-5.953
	c2.344-0.388,4.57,1.223,4.95,3.575s-1.223,4.57-3.575,4.949c-17.77,2.862-35.215,4.898-51.851,6.041
	C348.937,572.939,348.84,572.947,348.739,572.947z M450.991,556.742c-1.952,0-3.719-1.333-4.195-3.314
	c-0.557-2.314,0.873-4.646,3.191-5.202c15.586-3.735,31.13-8.015,46.252-12.732c-2.002-12.335-3.25-24.84-3.718-37.335
	c-0.089-2.386,1.771-4.389,4.152-4.478c2.386-0.067,4.389,1.771,4.473,4.148c0.637,17.015,2.762,34.043,6.312,50.608
	c0.502,2.336-0.982,4.629-3.313,5.126c-2.37,0.489-4.629-0.986-5.127-3.313c-0.443-2.057-0.86-4.114-1.256-6.185
	c-14.975,4.642-30.35,8.866-45.759,12.56C451.666,556.704,451.324,556.742,450.991,556.742z M757.057,551.906
	c-0.198,0-0.396-0.013-0.599-0.042c-2.36-0.329-4.009-2.509-3.681-4.87c1.978-14.187,6.717-29.081,14.09-44.271
	c0.924-1.906,2.065-3.955,3.398-6.084c1.261-2.023,3.921-2.639,5.948-1.374c2.02,1.265,2.635,3.929,1.37,5.948
	c-1.168,1.868-2.158,3.643-2.946,5.274c-6.982,14.38-11.459,28.406-13.311,41.695C761.028,550.342,759.178,551.906,757.057,551.906z
	 M197.308,548.567c-0.708,0-1.425-0.173-2.087-0.54c-16.294-9.014-30.017-20.46-40.789-34.01c-1.484-1.863-1.172-4.582,0.695-6.063
	c1.868-1.492,4.587-1.172,6.067,0.691c10.059,12.656,22.914,23.365,38.208,31.826c2.087,1.151,2.842,3.781,1.687,5.864
	C200.301,547.762,198.83,548.567,197.308,548.567z M859.874,544.014c-0.801,0-1.61-0.224-2.331-0.687
	c-2.007-1.29-2.584-3.963-1.294-5.966c11.07-17.214,17.938-32.964,19.856-45.544c0.358-2.361,2.547-3.993,4.916-3.622
	c2.356,0.358,3.976,2.559,3.617,4.92c-2.129,13.972-9.237,30.431-21.13,48.917C862.687,543.314,861.295,544.014,859.874,544.014z
	 M204.538,535.999c-1.08,0-2.159-0.396-2.993-1.205c-1.72-1.652-1.771-4.385-0.118-6.104c11.863-12.319,23.052-25.456,33.255-39.048
	c1.434-1.906,4.14-2.285,6.045-0.86c1.906,1.434,2.29,4.14,0.86,6.046c-10.414,13.87-21.834,27.276-33.938,39.849
	C206.802,535.562,205.668,535.999,204.538,535.999z M549.626,525.202c-1.69,0-3.297-0.999-3.983-2.66
	c-0.919-2.2,0.122-4.729,2.327-5.645c2.268-0.944,4.481-1.885,6.64-2.825c12.496-5.434,25.895-12.555,38.74-20.594
	c2.015-1.265,4.684-0.658,5.948,1.366c1.265,2.024,0.653,4.688-1.37,5.953c-13.204,8.263-26.994,15.595-39.878,21.197
	c-2.201,0.953-4.456,1.914-6.767,2.875C550.743,525.097,550.183,525.202,549.626,525.202z M636.963,470.27
	c-1.164,0-2.323-0.468-3.171-1.387c-1.618-1.754-1.509-4.486,0.241-6.104c14.081-12.994,24.625-26.139,31.336-39.064
	c1.101-2.117,3.702-2.943,5.822-1.838c2.116,1.096,2.938,3.702,1.843,5.818c-7.176,13.812-18.326,27.753-33.142,41.434
	C639.063,469.89,638.013,470.27,636.963,470.27z M134.685,469.751c-1.88,0-3.609-1.24-4.148-3.145
	c-3.706-13.04-5.919-27.399-6.589-42.669c-0.076-1.724-0.114-3.478-0.114-5.274c0-1.493,0.025-3.01,0.08-4.549
	c0.076-2.382,2.02-4.237,4.46-4.169c2.382,0.084,4.25,2.083,4.166,4.464c-0.046,1.438-0.072,2.858-0.072,4.254
	c0,1.669,0.038,3.297,0.105,4.899c0.641,14.6,2.749,28.289,6.269,40.692c0.653,2.293-0.679,4.68-2.973,5.329
	C135.473,469.692,135.077,469.751,134.685,469.751z M809.865,466.294c-1.361,0-2.706-0.641-3.546-1.847
	c-1.361-1.956-0.885-4.646,1.071-6.012c19.507-13.618,38.065-18.086,52.378-12.555c2.222,0.86,3.326,3.356,2.467,5.582
	c-0.864,2.226-3.356,3.331-5.586,2.47c-11.552-4.469-27.303-0.287-44.317,11.585C811.581,466.041,810.717,466.294,809.865,466.294z
	 M266.415,453.148c-0.708,0-1.425-0.168-2.087-0.54c-2.086-1.155-2.841-3.782-1.686-5.869c8.958-16.164,15.848-31.838,20.477-46.585
	c0.708-2.268,3.12-3.55,5.413-2.825c2.272,0.717,3.537,3.137,2.825,5.413c-4.806,15.295-11.922,31.51-21.16,48.18
	C269.408,452.348,267.933,453.148,266.415,453.148z M499.807,450.661c-0.228,0-0.459-0.017-0.696-0.059
	c-2.353-0.379-3.95-2.597-3.571-4.949c3.044-18.782,8.183-35.81,15.283-50.608c1.028-2.15,3.596-3.065,5.759-2.032
	c2.15,1.033,3.057,3.613,2.023,5.759c-6.737,14.056-11.632,30.295-14.54,48.259C503.72,449.152,501.89,450.661,499.807,450.661z
	 M677.401,379.889c-1.998,0-3.794-1.396-4.22-3.428c-3.428-16.278-14.103-28.192-30.06-33.546c-2.26-0.759-3.478-3.208-2.719-5.468
	c0.759-2.259,3.217-3.474,5.468-2.719c18.976,6.371,31.678,20.561,35.759,39.954c0.494,2.336-1.003,4.621-3.334,5.114
	C677.996,379.859,677.697,379.889,677.401,379.889z M137.501,367.726c-0.43,0-0.864-0.067-1.298-0.202
	c-2.272-0.717-3.537-3.141-2.821-5.414c5.494-17.42,13.057-34.035,21.881-48.053c1.273-2.015,3.938-2.631,5.953-1.357
	c2.02,1.273,2.626,3.938,1.357,5.953c-8.436,13.407-15.683,29.33-20.953,46.055C141.038,366.545,139.335,367.726,137.501,367.726z
	 M546.148,360.644c-1.277,0-2.538-0.557-3.39-1.636c-1.48-1.872-1.164-4.587,0.704-6.063c13.934-11.029,30.438-18.086,49.061-20.97
	c2.364-0.346,4.562,1.248,4.928,3.601c0.367,2.361-1.248,4.566-3.604,4.933c-17.129,2.656-32.276,9.115-45.021,19.208
	C548.028,360.34,547.084,360.644,546.148,360.644z M294.328,354.72c-2.302,0-4.216-1.817-4.309-4.145
	c-0.729-17.884-4.848-35.004-11.602-48.205c-1.083-2.125-0.245-4.722,1.88-5.81c2.112-1.092,4.713-0.249,5.81,1.876
	c7.411,14.498,11.75,32.403,12.538,51.792c0.097,2.378-1.754,4.389-4.136,4.486C294.451,354.716,294.387,354.72,294.328,354.72z
	 M194.264,283.378c-1.438,0-2.846-0.716-3.664-2.028c-1.265-2.02-0.653-4.68,1.37-5.948c5.11-3.2,10.417-5.755,15.78-7.584
	c13.276-4.537,25.75-5.713,36.889-3.508c2.34,0.468,3.857,2.74,3.39,5.08c-0.464,2.335-2.707,3.841-5.076,3.394
	c-9.637-1.923-20.59-0.835-32.412,3.204c-4.73,1.619-9.439,3.883-13.993,6.732C195.84,283.164,195.048,283.378,194.264,283.378z"/>
</svg>
